inDegrees=no
num_controls=7
num_derivatives=13
num_iterations=148
num_multipliers=7
num_parameters=0
num_slacks=7
num_states=26
objective=4.378299
objective_accelerations=0.227736
objective_balance=0.037312
objective_effort=0.310342
objective_height=3.753596
objective_ligament=0.049313
solver_duration=1375.345609
status=Solve_Succeeded
success=true
DataType=double
version=3
OpenSimVersion=4.4-2022-07-23-0e9fedc
endheader
time	/jointset/ground_pelvis/pelvis_tilt/value	/jointset/ground_pelvis/pelvis_tx/value	/jointset/ground_pelvis/pelvis_ty/value	/jointset/hip_l/hip_flexion_l/value	/jointset/hip_l/hip_adduction_l/value	/jointset/hip_l/hip_rotation_l/value	/jointset/back/lumbar_extension/value	/jointset/patellofemoral_l/patellar_flexion_l/value	/jointset/knee_l/knee_flexion_l/value	/jointset/knee_l/knee_adduction_l/value	/jointset/knee_l/knee_rotation_l/value	/jointset/ankle_l/ankle_angle_l/value	/jointset/subtalar_l/subtalar_angle_l/value	/jointset/ground_pelvis/pelvis_tilt/speed	/jointset/ground_pelvis/pelvis_tx/speed	/jointset/ground_pelvis/pelvis_ty/speed	/jointset/hip_l/hip_flexion_l/speed	/jointset/hip_l/hip_adduction_l/speed	/jointset/hip_l/hip_rotation_l/speed	/jointset/back/lumbar_extension/speed	/jointset/patellofemoral_l/patellar_flexion_l/speed	/jointset/knee_l/knee_flexion_l/speed	/jointset/knee_l/knee_adduction_l/speed	/jointset/knee_l/knee_rotation_l/speed	/jointset/ankle_l/ankle_angle_l/speed	/jointset/subtalar_l/subtalar_angle_l/speed	/forceset/tau_hip_flexion_l	/forceset/tau_hip_adduction_l	/forceset/tau_hip_rotation_l	/forceset/tau_knee_flexion_l	/forceset/tau_ankle_angle_l	/forceset/tau_subtalar_angle_l	/forceset/tau_lumbar_extension	lambda_cid13_p0	lambda_cid13_p1	lambda_cid13_p2	lambda_cid13_p3	lambda_cid13_p4	lambda_cid13_p5	lambda_cid14_p0	/jointset/ground_pelvis/pelvis_tilt/accel	/jointset/ground_pelvis/pelvis_tx/accel	/jointset/ground_pelvis/pelvis_ty/accel	/jointset/hip_l/hip_flexion_l/accel	/jointset/hip_l/hip_adduction_l/accel	/jointset/hip_l/hip_rotation_l/accel	/jointset/back/lumbar_extension/accel	/jointset/patellofemoral_l/patellar_flexion_l/accel	/jointset/knee_l/knee_flexion_l/accel	/jointset/knee_l/knee_adduction_l/accel	/jointset/knee_l/knee_rotation_l/accel	/jointset/ankle_l/ankle_angle_l/accel	/jointset/subtalar_l/subtalar_angle_l/accel	gamma_cid13_p0	gamma_cid13_p1	gamma_cid13_p2	gamma_cid13_p3	gamma_cid13_p4	gamma_cid13_p5	gamma_cid14_p0
0	-0.03682270529087367	0.05667757809818347	0.9203415908163184	0.3085811930696054	-0.295640464420856	-0.3016071738344513	-0.3879500408040475	0.249927658227081	0.249927658227084	-0.1745329164904028	-0.1745328678386668	-0.0008036543073733089	0.00043761457091513	0	0	0	0	0	0	0	0	0	0	0	0	0	0.04360058038458951	-0.06024653632530164	-0.02222090218486645	-0.2648069078396926	0.2635966872661759	-0.006561346031440832	0.04298028172819114	40.86127659729899	-6.259605803493006	2.776365290565439	-32.2695075491549	-651.1322186861922	-84.15531400094089	-23.19702678639708	1.309800462940991	-0.5051830437606227	-0.4050344007008891	3.537380412830375	-0.7182451905597339	2.627997278846789	-5.905918528852853	7.452462572277092	7.452462572279632	0.9235714704354343	-0.03382547679789265	3.071882878323531	0.2859592009458417	-9.51806415976433e-09	1.074850778078816e-07	3.880362322206479e-08	7.374454361408987e-09	4.02146341411713e-08	-1.099257761096179e-08	4.312672820445458e-09
0.01	-0.03675624837462545	0.05665310290318881	0.9203219096459455	0.3087515859316454	-0.2956764591318883	-0.3014752170741425	-0.3882428845107688	0.2502928227821429	0.2502928227819057	-0.1744895886408247	-0.1745317994723238	-0.000652504267064629	0.0004509747030255053	0.01324275806926581	-0.004825281853297267	-0.003917747839319047	0.03384289740237092	-0.007176600935533047	0.02624848628098586	-0.05816550268242039	0.07269713322173972	0.07269713322174687	0.008595599027313097	0.0001903596121714573	0.03015004033702321	0.002668994113475947	0.03973045610290777	-0.07252444151299486	-0.02157075771000603	-0.2613296333827172	0.2549055700404925	0.008013532431355644	0.04667427027604094	38.52065764379849	-12.0880904010709	3.601001615643231	-31.95382053465689	-653.2022702565588	-96.19767458307761	-23.20121044217633	1.32421499537872	-0.4607357088710842	-0.3823639973341076	3.272388974821368	-0.7140410210105671	2.60184461714216	-5.711380338724984	7.127971169644273	7.127971169643856	0.8170820330898835	0.04197217409782207	2.974570784231489	0.2568932851351134	-2.925258907547489e-08	9.070831547975409e-08	9.758070856679168e-08	2.11016771344647e-08	-2.071267487014808e-08	-6.224428267091092e-08	-3.855870845547589e-09
0.02	-0.03655882357439895	0.05658246789910992	0.9202636071928197	0.3092533366818861	-0.2957835545474969	-0.3010850613881632	-0.3891052860844929	0.25137488516368	0.2513748851636849	-0.1743623992183717	-0.1745295264114504	-0.0002022525888177447	0.0004909295299878673	0.02619357679680401	-0.009231961816848289	-0.007724256550571407	0.06627157763988974	-0.01422014090961852	0.05163978513864717	-0.1139115733964118	0.1433795653443489	0.1433795653443588	0.01677231462311214	0.0002409389792885074	0.05982032758764647	0.005318938970441751	0.03586033182152124	-0.08480234670021476	-0.02092061323318122	-0.257852358925699	0.24621445281507	0.02258841089470458	0.05036825882379737	36.2375820429662	-17.92888716446921	4.430156428761091	-31.83746023767204	-654.4875781563439	-108.1706852953472	-23.21356699917985	1.251412594595228	-0.4214626658111935	-0.382786575087556	3.25453697985993	-0.6916329982702928	2.456559794181564	-5.422032135167185	7.049522352450966	7.049522352452627	0.8397947841324824	-0.06178152580909563	2.975932261043703	0.2821493496437895	-4.898711399118545e-08	7.39315531516266e-08	1.563577939115186e-07	3.482889990752042e-08	-8.163998388146747e-08	-1.134959877308601e-07	-1.202441451154064e-08
0.03	-0.03623331509640746	0.05646963782893552	0.920167681048139	0.3100727975278129	-0.2959600777772461	-0.3004454586408358	-0.3905133497802289	0.253153927302622	0.2531539273026523	-0.1741549405649898	-0.1745275225973143	0.0005421735560989914	0.0005575944089402356	0.03887283787536256	-0.01328610891562909	-0.01145174070226812	0.09741426667947266	-0.02103307808026827	0.07615714578486729	-0.167338269240795	0.2120996640393749	0.2120996640393445	0.02469154361045531	0.0001672062642492516	0.08896681974114785	0.008034132025398153	0.03126450894641139	-0.07702518428827722	-0.02028822181284915	-0.2532224409482601	0.2415007506829188	0.01869994970247072	0.05445548694745979	34.49775354065659	-16.03453652002588	4.241271703733735	-30.8549597455949	-655.9424952660605	-103.6471808574644	-23.23368380746821	1.270885838584794	-0.390192214798697	-0.3663611568807649	3.013179145347384	-0.6684472518542873	2.430762241184151	-5.248553833131184	6.733876304707955	6.733876304701148	0.7638371997395957	0.02096193131150343	2.869294122252435	0.2691891177499782	-6.41472056260407e-08	4.924807430862372e-08	2.014465298388556e-07	4.528684874938629e-08	-1.332008739666044e-07	-1.555835943996665e-07	-1.914286637664917e-08
0.04	-0.03578207341280979	0.05631770599119676	0.9200347536976062	0.3111974941200448	-0.2962031950137735	-0.2995643946787862	-0.3924447935392107	0.2556102949638767	0.2556102949638984	-0.1738691195729717	-0.1745260298950608	0.001575121908500264	0.0006520081853077674	0.05134021791787566	-0.01705231532972083	-0.01512449772094449	0.1273187268926796	-0.02753894226656677	0.09993202808475549	-0.2185875860475053	0.2788446698015709	0.2788446698015005	0.03244478234595689	0.0001387165757163437	0.1175247690846009	0.01086871845348366	0.02666868607153125	-0.06924802187642551	-0.01965583039265356	-0.2485925229707255	0.2367870485507483	0.01481148851014261	0.05854271507133698	32.8125185761884	-14.14769922718716	4.051248766202385	-30.06533561073069	-656.6605675789906	-99.05063998910772	-23.26097092414252	1.209036387385921	-0.3638745288731976	-0.3718411484834901	3.006891214584732	-0.6302184014000939	2.308064124914978	-4.98655632763271	6.654503765884904	6.654503765886656	0.806596733764071	-0.05273292050802267	2.858223699034201	0.3060280242696224	-7.921297904891955e-08	2.44015703828399e-08	2.462530317575866e-07	5.567738988133071e-08	-1.845686420120263e-07	-1.974822505861814e-07	-2.623966686441987e-08
0.05	-0.03520732822567681	0.05612929125358888	0.9198652312253904	0.3126156566477078	-0.2965098694313158	-0.2984496214938246	-0.3948782351126638	0.2587245250536693	0.2587245250537018	-0.1735066972869269	-0.1745250111164136	0.002890417624068661	0.0007752302127401673	0.0635716713767172	-0.02060858178076767	-0.0187821559706752	0.1561504248389069	-0.03374326246059583	0.1229049658746572	-0.267787335741667	0.3436806762867497	0.3436806762867483	0.04000266158799699	7.666354757874757e-05	0.1454028893057487	0.01378525876393028	0.02175673717464236	-0.06728153430292645	-0.01880133339385884	-0.2432883998996986	0.228039153687251	0.01710128557142973	0.06269676244464698	30.0453148094387	-14.71786152333412	4.210934627711513	-28.46088160107045	-657.4613031572592	-99.68856097452932	-23.2946960338057	1.224623485861904	-0.3481839216224773	-0.3630893793045731	2.796797624641566	-0.6076800201970808	2.274227025718579	-4.839675355530119	6.350053613268132	6.350053613277972	0.7248640774338621	0.01884290168300911	2.732879718246953	0.2858710382527092	-8.833475598977585e-08	7.036029955759559e-09	2.741392737175902e-07	6.214311171625927e-08	-2.213305816672061e-07	-2.247695210520581e-07	-3.039568494013415e-08
0.06	-0.03451138377181014	0.05590597760779056	0.9196590599274591	0.3143172338628493	-0.2968770152891633	-0.2971086552470327	-0.397794272396103	0.2624774961130766	0.2624774961130404	-0.1730698000968549	-0.1745242559887977	0.004480549248768493	0.0009278984440412571	0.07558007126465027	-0.02403209696781295	-0.02245426286402181	0.1840016643851015	-0.0396332303263593	0.1451706404521988	-0.3151067280447515	0.4065928637092738	0.4065928637093574	0.04733976315044508	8.598634541515422e-05	0.1724919509105667	0.01675795922720176	0.01684478827794194	-0.06531504672933264	-0.01794683639573846	-0.2379842768284451	0.2192912588238362	0.01939108263285268	0.06685080981802312	27.32827682972811	-15.29811858932813	4.373727863927342	-27.04080484464327	-657.5881873372319	-100.2677781435663	-23.33403597202164	1.164425673204007	-0.3373242760727065	-0.3747308772066713	2.810799534578207	-0.5673479357470063	2.166611482442899	-4.61048484941742	6.269739953353889	6.269739953358871	0.7624411978456005	-0.03845775531324912	2.700411975768374	0.3172600548346289	-9.7206259394547e-08	-1.001452253453325e-08	3.013130836793314e-07	6.844357800183977e-08	-2.574775390743757e-07	-2.514415752770659e-07	-3.442788059849867e-08
0.07000000000000001	-0.03369661775243332	0.05564923395272223	0.9194160267911339	0.3162924408114459	-0.2973015338466278	-0.2955490109931608	-0.4011738012573326	0.266850091547991	0.266850091548006	-0.1725607651745339	-0.1745235203867948	0.006337792421581939	0.001110589610124862	0.08733212612641976	-0.0272799702589072	-0.02615876183399332	0.210852262849643	-0.04522448059142686	0.1666246165069669	-0.3604673490530836	0.4675928324499359	0.4675928324499218	0.05440387884163894	5.976291783388575e-05	0.1988330462028731	0.01978585031987171	0.01211471215816316	-0.06162846594726912	-0.01720109501946426	-0.2337781624782879	0.2123966935475079	0.01966167418004021	0.07106618382734957	25.09916271352304	-15.09165470284949	4.416565085960472	-25.86486188616021	-658.2004678315386	-99.21823330517233	-23.37805272154622	1.174441097018338	-0.3130055220039288	-0.3693209554809977	2.594061558690439	-0.5481596611926312	2.114706735781712	-4.449096454819349	5.965123645180096	5.965123645162474	0.668928036996554	0.01514088627029605	2.582407586457429	0.2963575470313896	-1.060689908777669e-07	-5.930711685291275e-08	3.342799577173156e-07	7.020391302697559e-08	-2.87872820421539e-07	-2.904818974298562e-07	-4.24105500119416e-08
0.08	-0.03276556204355989	0.05536111423146869	0.9191357463553903	0.318530528055941	-0.2977805941245986	-0.2937788437649775	-0.4049969854742987	0.2718226863324594	0.2718226863324624	-0.1719829828388058	-0.1745230779144932	0.008454736403415921	0.001323720469245033	0.09883800916242359	-0.03030731020485407	-0.02990372274766324	0.2365777235661677	-0.0505415744286813	0.1872752353132413	-0.4038377991925782	0.5265927336208941	0.5265927336207582	0.06108924582241482	2.736040028564383e-05	0.2244321127149952	0.02284589783446003	0.007384636038155681	-0.05794188516535734	-0.01645535364320219	-0.2295720481283398	0.205502128271046	0.01993226572702493	0.07528155783664234	22.91641849767149	-14.89271961366516	4.459928620031007	-24.8617310300785	-658.1942742956761	-98.11238937227097	-23.42576334295928	1.115191308050667	-0.2932176070430514	-0.3828232659463536	2.585771984974859	-0.5125166501844119	2.005940032744112	-4.212450675650058	5.869726439413028	5.86972643941323	0.6866914557619448	-0.03969357330665739	2.552006219731669	0.3236913392183455	-1.149311564305641e-07	-1.106798429021365e-07	3.676205778247348e-07	7.167133635788916e-08	-3.178970258938632e-07	-3.303201723521809e-07	-5.064808869990571e-08
0.09	-0.03172079548043993	0.05504374133197643	0.9188177335041197	0.3210207117160043	-0.2983114011617151	-0.2918064003126588	-0.4092440384119904	0.2773756528481673	0.277375652848135	-0.1713400629945307	-0.1745232884936479	0.01082400123555512	0.001567684412520575	0.1100729305990317	-0.03313831963778548	-0.03371052175316093	0.2612925603700339	-0.05556610763780461	0.2070907956129837	-0.4452637312777647	0.5836764564508141	0.5836764564506708	0.06744286681742574	-5.916625751406089e-05	0.2492924100267849	0.02595891772298914	0.002639275548645394	-0.05496138121110063	-0.01568619710379474	-0.2255943687161685	0.1980009144064472	0.02097228399697638	0.07951485556347368	20.53997246543777	-14.99106254899006	4.547295780614475	-23.57890305228768	-658.5006594498435	-97.67723367356976	-23.47610667451995	1.12128456008715	-0.2736857445742137	-0.3814234194955557	2.389363429374657	-0.4894045105994161	1.950905272403936	-4.061305915235486	5.579088506950776	5.579088506949468	0.6019413862711349	0.008480159083657946	2.433767210728267	0.3068874357903594	-1.207114807707074e-07	-1.510157161551061e-07	3.90924583372967e-07	7.17915001810345e-08	-3.381551326896027e-07	-3.594471909997606e-07	-5.658980288730148e-08
